<?xml version="1.0" encoding="utf-8"?>
<!-- Generator: Adobe Illustrator 26.0.2, SVG Export Plug-In . SVG Version: 6.00 Build 0)  -->
<svg version="1.1" id="Layer_1" xmlns="http://www.w3.org/2000/svg" xmlns:xlink="http://www.w3.org/1999/xlink" x="0px" y="0px"
	 viewBox="0 0 1024 768" style="enable-background:new 0 0 1024 768;" xml:space="preserve">
<style type="text/css">
	.st0{opacity:0.8;}
	.st1{fill:#FFFFFF;}
	.st2{fill:#FA370C;stroke:#000000;stroke-width:0.25;stroke-miterlimit:10;}
	.st3{fill:#FA370C;}
	.st4{fill:none;}
	.st5{font-family:'Sail-Regular';}
	.st6{font-size:223.0353px;}
</style>
<g class="st0">
	<g>
		<path class="st1" d="M631.63,97.08c-95.1,7.26-173.55,64.8-209.5,143.4c7.91,6.11,17.63,9.55,29.89,8.62
			c-12.26,0.94-21.98-2.51-29.89-8.62c-16.17,35.36-23.76,74.96-20.38,116.18c3.28,39.89,16.51,76.71,37.07,108.47
			c8.24-0.07,15.9-0.5,22.08-5.18c-6.18,4.69-13.85,5.12-22.08,5.18c47.91,74,135.88,120.37,232.35,113.01
			c137.88-10.52,240.8-126.74,229.88-259.58C890.13,185.72,769.51,86.56,631.63,97.08z"/>
		<path class="st2" d="M611.87,100.44C517.68,115,444.26,178.4,414.94,259.52c2.4,1.56,4.93,2.9,7.6,3.96
			c28.09-78.96,99.32-140.91,190.67-155.03c131.76-20.36,256.15,66.35,277.29,193.3c21.13,126.95-68.87,246.8-200.63,267.16
			c-90.54,13.99-177.59-22.58-230.06-88.01c-3.04,0.64-6.26,0.98-9.58,1.26c53.89,70.07,145.43,109.52,240.98,94.76
			c136.56-21.1,229.51-144.88,207.61-276.45C876.9,168.89,748.43,79.34,611.87,100.44z"/>
		<path class="st3" d="M132.71,290.22c10.32-28.94,29.59-52.64,54.89-70.28c-1.91-1.93-3.58-3.97-5.05-6.11
			c-26.61,18.32-46.85,43.11-57.67,73.45c-0.78,2.2-1.4,4.42-2.07,6.64c2.54,1.13,5.08,2.25,7.62,3.38
			C131.13,294.93,131.87,292.56,132.71,290.22z"/>
		<path class="st3" d="M207.42,529.78c-30.27-18.73-56.56-44.21-76.2-75.66c-2.55,1.11-5.1,2.21-7.65,3.32
			c19.52,31.54,45.4,57.33,75.25,76.63C201.86,532.73,204.78,531.37,207.42,529.78z"/>
	</g>
</g>
<rect x="182.55" y="271.62" class="st4" width="658.95" height="151.89"/>
<text transform="matrix(1.0379 -7.128632e-04 7.398850e-04 1 182.6059 416.3752)" class="st3 st5 st6">devmk</text>
</svg>
